<?xml version="1.0" encoding="UTF-8" standalone="no"?>
<svg
   fill="none"
   version="1.1"
   width="512"
   height="512"
   viewBox="0 0 512 512"
   id="svg22"
   sodipodi:docname="Frame.svg"
   inkscape:version="1.4 (e7c3feb100, 2024-10-09)"
   xmlns:inkscape="http://www.inkscape.org/namespaces/inkscape"
   xmlns:sodipodi="http://sodipodi.sourceforge.net/DTD/sodipodi-0.dtd"
   xmlns="http://www.w3.org/2000/svg"
   xmlns:svg="http://www.w3.org/2000/svg">
  <sodipodi:namedview
     id="namedview1"
     pagecolor="#ffffff"
     bordercolor="#000000"
     borderopacity="0.25"
     inkscape:showpageshadow="2"
     inkscape:pageopacity="0.0"
     inkscape:pagecheckerboard="0"
     inkscape:deskcolor="#d1d1d1"
     inkscape:zoom="1.2115478"
     inkscape:cx="225.33159"
     inkscape:cy="217.90307"
     inkscape:window-width="1920"
     inkscape:window-height="1011"
     inkscape:window-x="0"
     inkscape:window-y="0"
     inkscape:window-maximized="1"
     inkscape:current-layer="layer1" />
  <defs
     id="defs1">
    <inkscape:perspective
       sodipodi:type="inkscape:persp3d"
       inkscape:vp_x="0 : 256 : 1"
       inkscape:vp_y="0 : 1000 : 0"
       inkscape:vp_z="512 : 256 : 1"
       inkscape:persp3d-origin="256 : 170.66667 : 1"
       id="perspective1" />
    <clipPath
       id="master_svg0_1_837">
      <rect
         x="0"
         y="0"
         width="512"
         height="512"
         rx="0"
         id="rect1" />
    </clipPath>
  </defs>
  <g
     inkscape:groupmode="layer"
     id="layer1"
     inkscape:label="Layer 1">
    <circle
       style="fill:#151515;fill-opacity:1;stroke:#000000;stroke-width:17.9098;stroke-opacity:0"
       id="path22"
       cx="256"
       cy="256"
       r="247.04509" />
    <g
       clip-path="url(#master_svg0_1_837)"
       id="g22"
       transform="matrix(1.0002364,0,0,1.0002364,-5.1139556,3.8253185)">
      <g
         id="g3"
         style="fill:#ffffff">
        <path
           d="m 81.045015,137.4657 c -2.524767,4.8361 -2.49976,11.0033 -2.429548,28.3187 0.0083,1.8962 0.01098,3.7924 0.0086,5.6885 -0.013,5.1867 -0.01503,10.3732 -0.0024,15.56 0.01394,5.5122 0.01652,11.0244 0.01471,16.5367 -0.0032,9.2428 0.0027,18.4854 0.02036,27.7284 0.0213,10.744 0.03361,21.489 0.02757,32.233 -0.0061,10.435 -0.0056,20.869 0.0055,31.304 l 2.52e-4,0.233 c 0.0047,4.343 0.0094,8.686 0.0084,13.029 -0.0025,5.285 -0.0019,10.57 0.01144,15.855 0.006,1.953 0.01114,3.905 0.01549,5.857 -0.004,2.708 -0.0079,5.416 0.0024,8.124 l 0.01159,2.473 c -0.03621,7.126 0.610149,13.915 3.557571,20.485 l 1.45312,2.359 c 4.34219,7.301 4.34219,7.301 18.91848,15.217 2.5681,1.385 5.1335,2.775 7.6943,4.173 1.3231,0.723 2.6462,1.446 3.9693,2.169 5.5419,3.019 11.0581,6.079 16.5481,9.192 13.6523,7.765 27.383,15.386 41.1198,22.999 3.4462,1.91 6.8924,3.82 10.3374,5.731 l 3.413,1.894 c 7.385,4.098 14.756,8.218 22.099,12.388 7.907,4.491 15.831,8.949 23.804,13.322 l 3.159,1.727 c 6.831,3.769 13.701,7.625 21.188,9.938 10.5,1.25 18.168,-2.926 27.133,-7.936 1.738,-0.983 3.476,-1.965 5.218,-2.942 7.514,-4.207 7.514,-4.207 24.336,-13.747 6.72501,-3.818 13.48001,-7.572 20.286,-11.245 8.828,-4.754 17.62,-9.554 26.339,-14.505 7.197,-4.089 14.407,-8.15 21.644,-12.167 9.12,-5.057 18.239,-10.115 27.34501,-15.198 l 3.261,-1.822 c 2.91,-1.622 5.817,-3.247 8.717,-4.887 l 2.721,-1.551 2.814,-1.602 2.69,-1.566 c 2.398,-1.39 4.329,-2.667 6.3,-4.618 8.236,-10.297 8.773,-20.589 8.699,-33.251 -0.012,-1.962 -0.016,-3.923 -0.014,-5.885 0.014,-5.357 0.014,-10.714 -0.005,-16.072 -0.022,-5.694 -0.027,-11.388 -0.027,-17.083 0.002,-9.542 -0.009,-19.083 -0.035,-28.625 -0.032,-11.102 -0.053,-22.204 -0.052,-33.307 0.002,-11.922 -0.006,-23.8443 -0.025,-35.7667 -0.005,-3.4155 -0.009,-6.831 -0.011,-10.2465 -10e-4,-5.4629 -0.006,-10.9257 -0.023,-16.3886 -0.008,-2.0144 -0.015,-4.0287 -0.021,-6.0431 0.002,-2.8018 0.003,-5.6034 -0.009,-8.4052 l -0.014,-2.5459 c 0.026,-6.6082 -0.642,-12.2169 -3.564,-18.2903 -4.372,-7.30959 -8.113,-12.05476 -16.703,-14.3047 l -4,6 c 3.917,0.25687 6.875,0.12154 10,2.5625 1.683,4.1038 1.841,8.3666 0.16001,12.5039 -4,6.666 -10.81401,9.3323 -17.78101,12.0508 l -2.379,0.8828 v 6 c 5.209,0.5484 10.068,1.1884 15,3 1.05901,2.8068 1.05901,2.8068 1.203,5.0859 l 0.047,2.2891 c 0.071,1.1305 0.10701,1.7038 0.078,2.2737 -0.03,0.5863 -0.129,1.1691 -0.328,2.3513 -1.879,4.2235 -4.098,5.9318 -8.241,7.9277 l -1.947,0.8848 c -1.285,0.6114 -2.57,1.2221 -3.855,1.832 l -2.957,1.3555 c -0.103,18.6118 -0.209,37.224 -0.323,55.835 -0.056,9.047 -0.11099,18.094 -0.16,27.142 -0.043,7.947 -0.088,15.894 -0.138,23.841 -0.027,4.196 -0.054,8.392 -0.076,12.588 -0.02,4.017 -0.041,8.033 -0.068,12.049 -0.01,1.478 -0.02,2.957 -0.03,4.435 -0.006,1.406 -0.012,2.812 -0.017,4.218 l -0.03,3.837 c -0.012,2.019 -0.055,4.039 -0.158,6.055 -2.127,6.381 -6.449,9.615 -12.127,12.727 -1.104,0.58 -0.792,1.205 -1.873,1.773 -2.557,1.388 -4.429,3.14 -7,4.5 -4.5,2.75 -9.063,5.062 -12.5,7 -3.438,1.938 -6.75,3.5 -9.5,5 -2,1 -2,0 -4.162,1.069 l -2.682,1.497 -3.004,1.669 c -2.04701,1.146 -4.096,2.288 -6.14801,3.425 -2.06799,1.144 -4.13499,2.291 -6.19999,3.439 -1.681,0.935 -3.36201,1.87 -5.04301,2.805 -1.802,1.002 -3.60399,2.004 -5.406,3.006 -4.25599,2.367 -8.514,4.734 -12.77199,7.097 q -1.77601,0.985 -3.551,1.971 l -5.22001,2.897 c -5.88999,3.268 -11.781,6.533 -17.63999,9.855 -2.597,1.476 -5.19701,2.944 -7.80501,4.399 l -3.367,1.871 c -3.928,2.229 -7.787,4.361 -12,6 -8.629,1.928 -15.408,0.711 -23.133,-3.714 -1.304,-0.767 -2.613,-1.527 -3.924,-2.281 l -2.197,-1.263 c -4.257,-2.464 -8.533,-4.893 -12.816,-7.311 l -2.868,-1.619 c -5.13,-2.903 -7.917,-3.435 -13.062,-6.312 -1.721,-0.959 -4.314,-2.06 -6,-3 -2.229,-1.244 -4.271,-2.257 -6.5,-3.5 -6.629,-3.681 -25.6098,-14.917 -32.0004,-19 -5.5,-2.967 -34.2455,-19.35 -36.5,-21 -2.7898,-1.062 -5.0846,-2.058 -7.5625,-3.75 -3.5979,-3.321 -6.1393,-6.432 -6.9453,-11.347 l -0.0112,-3.357 c -0.0215,-1.982 -0.0418,-3.963 -0.0352,-5.945 0.006,-1.449 0.004,-2.898 -0.005,-4.346 -0.0321,-3.952 -0.05,-7.903 -0.0493,-11.854 0.001,-4.197 -0.0146,-8.393 -0.0373,-12.59 -0.0436,-7.926 -0.0706,-15.852 -0.0836,-23.778 -0.0149,-9.093 -0.0473,-18.187 -0.0871,-27.28 -0.0834,-18.804 -0.1424,-37.6076 -0.1794,-56.4115 L 114.99998,189 c -2.0045,-0.653 -4.0041,-1.321 -6,-2 -5.3602,-2.6324 -9.352405,-5.4842 -12.000005,-11 -0.6688,-4.2361 -0.5215,-6.1619 1.75,-9.8125 6.021605,-3.0426 6.021605,-3.0426 12.800805,-3.9258 L 113.99998,162 v -6 c -7.5788,-2.1579 -14.184305,-4.7512 -19.437505,-10.8125 -2.118,-4.3208 -3.4106,-8.5773 -1.8594,-13.35156 1.1698,-2.01747 1.1698,-2.01747 3.461,-2.66406 l 2.4609,-0.42188 2.476605,-0.45312 1.8984,-0.29688 c -0.8125,-2.4375 -0.8125,-2.4375 -2,-5 -1.829905,-0.60997 -2.999805,-0.99993 -4.119605,-0.88831 -1.9849,0.19783 -3.8128,1.97136 -8.88038,6.88831 -3.3813,3.5225 -5.55829,5.7904 -6.95498,8.4657 z"
           fill="#262526"
           fill-opacity="1"
           style="fill:#ffffff"
           id="path3" />
      </g>
      <g
         id="g5"
         style="fill:#ffffff">
        <path
           d="m 109,116 c 5.32621,0.58725 10.4329,1.47931 15.6328,2.78516 1.5179,0.36724 3.0361,0.73279 4.5547,1.09692 0.8018,0.19236 1.6036,0.38472 2.4297,0.58292 20.3381,4.8457 40.7854,8.0463 61.5044,10.795 1.128,0.1546 2.256,0.3092 3.4182,0.4685 2.1125,0.2887 4.2266,0.5657 6.3425,0.8284 7.3497,1.0116 13.9727,2.6622 18.9927,8.4431 4.399,6.2107 4.42,10.7767 4.586,18.3711 0.615,4.1408 1.536,5.7621 4.539,8.6289 2.107,1.14 2.107,1.14 4.375,1.6875 0.781,0.2282 1.562,0.4563 2.367,0.6914 1.118,0.3074 1.118,0.3074 2.258,0.6211 5.895,1.8947 5.895,1.8947 7,3 0.291,4.3437 0.314,8.6932 0.35,13.0454 0.017,1.4627 0.044,2.9254 0.082,4.3877 0.055,2.1113 0.077,4.2206 0.091,6.3325 0.02,1.2662 0.04,2.5324 0.06,3.8369 -0.734,4.2766 -2.277,5.6899 -5.583,8.3975 -8.078,4.8501 -18.075,2.8739 -26.875,1.3125 -3.346,-0.3346 -5.746,0.3444 -8.945,1.2656 -5.7104,1.1052 -12.0083,0.008 -17.18,-2.5781 0,-0.66 0,-1.32 0,-2 5.61,-2.97 11.22,-5.94 17,-9 0,-1.32 0,-2.64 0,-4 -4.1463,-0.3212 -6.1087,0.404 -9.5,2.75 -12.2912,7.6616 -25.7434,9.201 -39.8125,6.0625 C 149.7161,201.8274 142.4723,198.8753 137,194 c 0,-0.99 0,-1.98 0,-3 0.5576,-0.0699 1.1152,-0.1399 1.6897,-0.2119 16.2743,-2.0796 31.1979,-5.2099 46.3611,-11.6162 C 188,178 188,178 190,178 c -0.99,-1.98 -0.99,-1.98 -2,-4 -5.1758,1.0527 -10.1556,2.328 -15.1875,3.9375 -18.59,5.7118 -40.7417,9.3927 -58.96875,0.5273 C 111.1815,177.043 108.57811,175.5682 106,174 c 0,-0.99 0,-1.98 0,-3 0.80824,-0.1212 1.61648,-0.2423 2.44922,-0.3672 1.60295,-0.2514 1.60295,-0.2514 3.23828,-0.5078 1.05574,-0.1624 2.11148,-0.3248 3.19922,-0.4922 4.25398,-0.8073 4.25398,-0.8073 8.11328,-2.6328 1.3797,-3.5351 1.3797,-3.5351 2,-7 0.7663,0.0209 1.5325,0.0419 2.322,0.0635 15.8246,0.37 31.2743,-0.006 46.9905,-2.001 0.7258,-0.0914 1.4516,-0.1828 2.1994,-0.277 7.4705,-0.6167 7.4705,-0.6167 14.4881,-2.7855 0,-1.65 0,-3.3 0,-5 -1.2581,0.0619 -2.5163,0.1237 -3.8125,0.1875 -25.342,-0.1069 -56.4763,-8.917 -74.96484,-26.91797 C 109.9386,120.70708 109,119.5063 109,116 Z"
           fill="#272627"
           fill-opacity="1"
           id="path5"
           style="fill:#ffffff" />
      </g>
      <g
         id="g6"
         style="fill:#ffffff">
        <path
           d="m 412.99963,116 c 0.33,0.99 0.66,1.98 1,3 -13.531,19.01752 -40.82,25.69032 -62.6198,29.60942 -6.4282,1.0551 -12.8981,1.7598 -19.3798,2.3906 0,1.32 0,2.64 0,4 2.3321,0.4652 4.6654,0.922 7,1.375 0.9435,0.1895 0.9435,0.1895 1.9062,0.3828 13.5912,2.6137 26.7969,3.5299 40.5934,3.3672 1.517,-0.0101 3.034,-0.0192 4.551,-0.0274 3.65,-0.0216 7.3,-0.0559 10.949,-0.0976 0.46,0.9606 0.919,1.9212 1.392,2.9109 2.296,4.4108 5.001,5.5772 9.608,7.0891 2.999,0.5524 5.956,0.859 9,1 -0.125,1.8047 -0.125,1.8047 -1,4 -2.625,1.6328 -2.625,1.6328 -6,3.125 -1.093,0.4976 -2.186,0.9951 -3.312,1.5078 -20.807,7.7144 -46.1873,4.0436 -66.1564,-4.6797 -2.7044,-1.188 -2.7044,-1.188 -6.5312,-0.9531 0,1.32 0,2.64 0,4 16.9613,6.4758 33.0231,10.4953 50.9996,13 -0.78,3.8047 -0.78,3.8047 -2.757,5.5625 -12.6202,7.6635 -27.1651,10.6505 -41.7231,7.7422 -6.3959,-1.7846 -11.8046,-4.3177 -17.3008,-8.0352 -2.4186,-1.3839 -4.4764,-1.8688 -7.2187,-2.2695 0.577,3.0058 1.1001,5.287 3.5712,7.2451 1.9837,1.1357 3.9885,2.1506 6.0538,3.1299 0.7064,0.3545 1.4128,0.709 2.1406,1.0742 1.736,0.868 3.4841,1.7118 5.2344,2.5508 0,0.66 0,1.32 0,2 -8.4023,3.226 -15.1895,3.207 -23.9336,1.3906 -3.4093,-0.4343 -6.0142,-0.048 -9.3789,0.6094 -6.6747,1.1188 -12.3178,1.5384 -18.56255,-1.3125 -2.3022,-1.8282 -3.63127,-3.147 -5.125,-5.6875 -0.34057,-3.3916 -0.34057,-3.3916 -0.29296,-7.3906 0.004,-0.7047 0.008,-1.4093 0.0129,-2.1352 0.0167,-2.2418 0.0544,-4.4827 0.0926,-6.7242 0.0151,-1.5234 0.0288,-3.0469 0.041,-4.5703 0.033,-3.7269 0.0848,-7.4532 0.14648,-11.1797 0.95262,-0.2424 1.90523,-0.4847 2.88672,-0.7344 1.25426,-0.3351 2.50852,-0.6703 3.80078,-1.0156 1.86205,-0.4873 1.86205,-0.4873 3.76175,-0.9844 3.6178,-1.2895 5.8101,-2.6012 8.5508,-5.2656 1.075,-3.2252 1.2094,-5.8605 1.375,-9.25 0.6141,-8.1371 2.1099,-12.8909 8.3203,-18.3906 8.0769,-4.7641 17.3409,-5.3115 26.4521,-6.3789 23.6018,-2.7912 46.9002,-6.71914 69.8152,-13.15215 0.861,-0.23984 1.721,-0.47969 2.608,-0.7268 1.11,-0.31977 1.11,-0.31977 2.242,-0.646 2.445,-0.50919 4.697,-0.53268 7.187,-0.45557 z"
           fill="#272627"
           fill-opacity="1"
           id="path6"
           style="fill:#ffffff" />
      </g>
      <g
         id="g7"
         style="fill:#ffffff;stroke-width:0;stroke-dasharray:none"
         transform="matrix(1.334187,0,0,1.181858,-87.222825,-29.214606)">
        <path
           d="m 300.586,76.637595 c 9.325,5.471 17.541,9.073546 26.988,14.331546 5.463,3.0428 11.07462,5.922245 16.53162,8.976845 1.041,0.582804 11.05026,5.878574 12.12326,6.479074 7.577,4.2442 7.24612,3.46211 14.77112,7.79681 -3.355,2.2369 -6.251,1.55622 -10.133,2.21562 -0.71,0.1256 -1.42,0.2512 -2.152,0.3806 -1.51,0.2656 -3.022,0.5276 -4.534,0.7864 -2.251,0.386 -4.499,0.7843 -6.747,1.1846 -4.471,0.7864 -8.949,1.5154 -13.434,2.2109 -0.771,0.1209 -1.543,0.2419 -2.337,0.3665 -2.287,0.3484 -4.575,0.6693 -6.866,0.9812 -0.686,0.1053 -1.372,0.2106 -2.079,0.3192 -7.025,0.8915 -11.763,-1.7348 -17.59,-5.3627 -4.463,-2.7355 -9.065,-5.239 -13.628,-7.8042 -1.994,-1.1286 -3.987,-2.2575 -5.98,-3.3867 -1.84,-1.0381 -3.68,-2.0758 -5.52,-3.1133 -0.739,-0.4197 -1.479,-0.8395 -2.241,-1.272 -10.288,-5.918696 -10.288,-5.918696 -21.759,-5.727996 -5.5811,2.2311 -10.7579,5.073296 -16,7.999996 -1.008,0.5572 -2.0161,1.1144 -3.0547,1.6885 -5.4652,3.023 -10.9178,6.0673 -16.3555,9.1396 -0.9837,0.5472 -1.9674,1.0944 -2.9809,1.6582 -2.5238,1.4055 -2.5238,1.4055 -4.417,2.8243 -8.3009,5.9021 -21.1145,2.6208 -30.5236,1.0597 -1.5742,-0.2712 -3.1478,-0.5458 -4.7208,-0.8239 -2.4044,-0.4248 -26.9475,-5.5464 -7.219,-1.2378 -1.5542,-0.266 -3.1082,-0.5329 -4.6621,-0.8008 -1.0611,-0.1814 -1.0611,-0.1814 -2.1437,-0.3664 -4.41647,-0.785 -8.01801,-0.62362 -12.3042,-1.91952 4.78696,-4.2917 9.78379,-5.67976 15.8719,-9.71442 7.47626,-4.48116 9.54454,-5.01222 17.32444,-9.487725 0.8482,-0.4879 8.06256,-4.424539 8.93646,-4.927239 1.732,-0.9966 7.02028,-4.437165 8.75218,-5.433965 4.7107,-2.7002 7.5863,-3.900801 12.3159,-6.567701 5.7901,-3.265 9.25602,-3.744625 15.02042,-7.054825 0.9411,-0.5401 1.8821,-1.0802 2.8516,-1.6367 1.7707,-1.01754 3.5403,-2.03693 5.3086,-3.05856 25.183,-14.47131 39.272,-4.4227 62.586,9.29686 z"
           fill="#262526"
           fill-opacity="1"
           style="fill:#ffffff;stroke-width:0;stroke-dasharray:none"
           id="path7"
           sodipodi:nodetypes="cccccccccccccccccccccccccccccccsccccccc" />
      </g>
      <g
         id="g8"
         style="fill:#ffffff">
        <path
           d="m 201.1599,228.16796 c 4.2524,1.92282 8.1937,2.15248 12.8401,1.83203 4.0994,-1.6111 4.0994,-1.6111 7.215,-4.58203 2.847,-2.26163 5.536,-1.8141 9.097,-1.79297 1.296,-0.008 2.592,-0.0155 3.926,-0.0234 3.952,0.41859 6.39,1.34057 9.762,3.39843 2.4,3.16425 2.176,6.12697 2,9.99997 -0.629,-0.0348 -1.258,-0.0696 -1.906,-0.1054 -8.426,-0.2665 -14.889,1.2199 -21.246,6.9687 -2.454,2.8371 -4.3811,5.9557 -6.348,9.1367 -5.8454,9.426 -11.8892,14.3906 -22.5,18 -8.5949,1.7026 -8.5949,1.7026 -12,0 0.3094,-0.7631 0.6188,-1.5262 0.9375,-2.3125 0.7414,-1.8754 1.4248,-3.7743 2.0625,-5.6875 -3.4177,0.6292 -5.6673,1.9537 -8.5,3.9375 -7.1143,4.9581 -14.009,7.1353 -22.8398,5.6758 -1.9102,-0.5508 -1.9102,-0.5508 -4.6602,-1.6133 0,-0.66 0,-1.32 0,-2 1.6667,-1.3333 3.3333,-2.6666 5,-4 0,-0.66 0,-1.32 0,-2 -3.2611,0.4773 -6.2828,1.0875 -9.4375,2.0625 -6.9552,1.8304 -13.1536,1.1539 -19.5625,-2.0625 -2.33186,-1.892 -3.39055,-3.3712 -5,-6 0.0742,-2.0429 0.0742,-2.0429 1,-4 2.15234,-1.2734 2.15234,-1.2734 4.9375,-2.375 11.7752,-5.04 20.5331,-12.2652 30.0625,-20.62497 15.3971,-13.48131 28.1502,-10.69092 45.1599,-1.83203 z"
           fill="#272627"
           fill-opacity="1"
           id="path8"
           style="fill:#ffffff" />
      </g>
      <g
         id="g9"
         style="fill:#ffffff">
        <path
           d="m 361.7305,225.91797 c 2.8182,2.29767 5.5518,4.66637 8.2695,7.08207 10.181,8.8816 20.45,15.8974 33,21 -0.88,3.8719 -1.602,5.6664 -4.688,8.25 -7.914,4.1813 -15.25,4.561 -23.7964,2.0078 -1.8617,-0.6932 -3.6932,-1.467 -5.5156,-2.2578 -0.495,0.99 -0.495,0.99 -1,2 0.825,0.7837 1.65,1.5675 2.5,2.375 2.5,2.625 2.5,2.625 2.5,4.625 -7.0083,2.6475 -13.7303,2.6026 -20.7891,-0.0469 -4.3519,-2.0797 -8.1155,-4.1543 -11.2109,-7.9531 -1.485,0.495 -1.485,0.495 -3,1 0.33,0.5981 0.66,1.1962 1,1.8125 1,2.1875 1,2.1875 1,5.1875 -7.3039,1.771 -13.6253,0.0428 -20.125,-3.5625 -7.2308,-4.6848 -11.9623,-10.7815 -16.3125,-18.125 -3.8044,-6.2358 -8.6348,-10.0033 -15.5625,-12.3125 -2.06145,-0.069 -4.12502,-0.0847 -6.1875,-0.0625 -1.08668,0.009 -2.17336,0.018 -3.29297,0.0273 -0.83144,0.0116 -1.66289,0.0232 -2.51953,0.0352 0.25359,-4.311 0.5846,-6.4972 3.375,-9.87504 5.75454,-4.65844 13.5791,-3.83187 20.625,-3.125 2.7846,1.36036 3.9167,2.62737 6,5 6.9751,2.32504 11.8587,1.00394 18.2129,-2.15039 0.8166,-0.42475 1.6332,-0.84949 2.4746,-1.28711 1.6472,-0.83706 3.2969,-1.66926 4.9492,-2.4961 0.7189,-0.37181 1.4378,-0.74362 2.1785,-1.1267 9.5487,-4.10696 19.6332,-1.83932 27.9153,3.97827 z"
           fill="#272627"
           fill-opacity="1"
           id="path9"
           style="fill:#ffffff" />
      </g>
      <g
         id="g10"
         style="fill:#ffffff">
        <path
           d="m 269.42186,109.72266 c 5.6615,2.62856 8.4636,6.12793 11.3281,11.65232 2.1173,6.14 1.5979,10.8898 -0.8359,16.7696 -1.8224,3.6993 -3.5729,6.3536 -7.4952,7.8212 -2.5683,1.751 -2.5683,1.751 -2.9168,4.1099 -0.236,2.8941 -0.3057,5.7557 -0.3292,8.6594 -0.0284,1.1062 -0.0568,2.2123 -0.086,3.352 -0.0886,3.6727 -0.1423,7.345 -0.1962,11.0184 -0.0555,2.5582 -0.1133,5.1163 -0.1732,7.6744 -0.137,6.0651 -0.2525,12.1302 -0.3572,18.1959 -0.1538,8.8438 -0.3461,17.6872 -0.536,26.5302 -0.1361,6.357 -0.2671,12.714 -0.3818,19.072 -0.1193,6.475 -0.2616,12.949 -0.4425,19.422 -0.0245,0.881 -0.049,1.761 -0.0742,2.668 -0.0729,2.296 -0.1676,4.59 -0.2744,6.884 -0.0528,1.22 -0.1056,2.439 -0.16,3.696 -0.2432,1.362 -0.2432,1.362 -0.4914,2.752 -3,2 -3,2 -5.5625,1.75 -2.4375,-0.75 -2.4375,-0.75 -4.4375,-2.75 -0.3109,-2.491 -0.3109,-2.491 -0.3965,-5.672 -0.0361,-1.188 -0.0722,-2.376 -0.1094,-3.6 -0.029,-1.295 -0.058,-2.589 -0.0878,-3.923 -0.0368,-1.356 -0.0742,-2.712 -0.1122,-4.068 -0.4275,-15.834 -0.6342,-31.674 -0.8463,-47.512 -0.193,-14.1256 -0.4371,-28.2346 -1.1121,-42.3463 -0.3929,-8.2966 -0.4372,-16.5747 -0.3357,-24.8787 -1.1369,-0.3751 -1.1369,-0.3751 -2.2968,-0.7578 -2.96157,-1.3609 -4.07599,-2.499 -5.95317,-5.1172 -0.50015,-0.678 -1.00031,-1.3561 -1.51562,-2.0547 -2.89455,-4.8547 -2.96895,-10.5734 -2.23438,-16.0703 4.9074,-11.93248 16.12817,-16.94559 28.42187,-13.27732 z"
           fill="#292828"
           fill-opacity="1"
           id="path10"
           style="fill:#ffffff" />
      </g>
      <g
         id="g12"
         style="fill:#ffffff">
        <path
           d="m 245.00003,246 c 3,2.00001 3,2.00001 3.9375,4.87501 0.0625,3.125 0.0625,3.125 -1.625,5.43749 -2.3125,1.6875 -2.3125,1.6875 -4.4375,2.1875 -2.008,0.3317 -2.008,0.3317 -3.125,2.125 -1.4145,4.4791 -1.4126,7.9897 0.625,12.25 5.7028,7.5047 13.8354,13.1417 21.2221,18.8884 22.9528,17.8865 22.9528,17.8865 25.4029,25.2366 0.6358,7.7135 0.9265,13.8102 -4,20 -2.2334,2.1425 -4.5447,4.1171 -7,6 -3.1514,-1.8383 -6.1197,-3.7597 -9,-6 0.8125,-1.9375 0.8125,-1.9375 2,-4 0.99,-0.33 1.98,-0.66 3,-1 1.4546,-4.0868 2.1747,-6.7767 1.5625,-11.0625 -4.3076,-8.0983 -12.5986,-13.167 -19.7715,-18.5786 C 226.56921,281.7051 226.56921,281.7051 224,271 c -0.60613,-7.3948 0.8364,-13.5681 4.8125,-19.87499 5.02903,-4.88535 9.45673,-5.67671 16.18753,-5.12501 z"
           fill="#292829"
           fill-opacity="1"
           id="path12"
           style="fill:#ffffff" />
      </g>
      <g
         id="g13"
         style="fill:#ffffff">
        <path
           d="m 244.99998,304 c 3.9414,1.66751 6.7893,4.22711 10,7 -0.4447,0.54527 -0.8894,1.09055 -1.3476,1.65234 -2.9736,3.96256 -5.1995,7.00296 -4.8399,12.09766 0.8925,4.4165 2.6608,6.3845 6.1875,9.25 1.3774,1.2474 2.7521,2.4977 4.125,3.75 4.3427,3.848 8.8407,7.4798 13.3946,11.0742 4.3007,3.7725 8.0409,7.8845 8.8164,13.6914 0.1088,7.6177 -0.9058,12.9093 -6.2774,18.5078 -1.4055,1.3512 -2.813,2.7001 -4.2226,4.0469 -4.4044,4.6293 -5.1801,9.8979 -5.5274,16.0117 -0.3086,1.918 -0.3086,1.918 -2.3086,3.918 -2.625,-0.375 -2.625,-0.375 -5,-1 -0.7164,-9.9507 -0.4616,-16.9609 6,-25 0.9307,-1.0685 1.8674,-2.1318 2.8125,-3.1875 2.6977,-3.4685 3.2645,-5.4267 3.1875,-9.8125 -2.789,-6.0714 -6.448,-9.4692 -11.6875,-13.5 -0.7139,-0.5661 -1.4278,-1.1321 -2.1633,-1.7153 -3.7327,-2.9504 -7.5243,-5.8133 -11.3367,-8.6597 C 240.18905,338.5712 236.87143,334.6143 235,329 c -0.94197,-8.0875 0.37289,-14.2594 5,-21 2.8125,-2.625 2.8125,-2.625 4.99998,-4 z"
           fill="#2A292A"
           fill-opacity="1"
           id="path13"
           style="fill:#ffffff" />
      </g>
      <g
         id="g16"
         style="fill:#ffffff">
        <path
           d="m 283.7227,245.65234 c 4.9107,0.74967 7.6763,3.73297 11.0273,7.16016 4.1752,5.91486 4.7695,11.32146 3.8945,18.35936 -2.3849,10.4649 -10.3292,16.8059 -18.6445,22.8281 -1.32,0.66 -2.64,1.32 -4,2 -4.455,-3.465 -4.455,-3.465 -9,-7 2.4836,-4.9672 6.03518,-7.51 10.3008,-10.8457 3.4039,-2.7546 5.5565,-4.7594 6.6992,-9.1543 0.3135,-3.8399 0.4406,-6.8938 -2,-10 -2.975,-1.1583 -2.975,-1.1583 -6,-2 C 274,255 274,255 273.6875,252.0625 274,249 274,249 275.25,247.33594 c 2.7555,-2.10355 5.1117,-1.80888 8.4727,-1.6836 z"
           fill="#2A2929"
           fill-opacity="1"
           id="path16"
           style="fill:#ffffff" />
      </g>
      <g
         id="g17"
         style="fill:#ffffff">
        <path
           d="m 101,137 c 7.65707,-1.39376 12.977,0.66324 19.625,4.125 11.226,5.82182 23.0539,8.35342 35.375,10.87502 0,0.66 0,1.32 0,2 -3.4791,0.0588 -6.9581,0.0939 -10.4375,0.125 -0.9739,0.0167 -1.9478,0.0335 -2.9512,0.0508 -9.3661,0.0626 -17.1473,-1.608 -25.6738,-5.4258 -0.6903,-0.3058 -1.3806,-0.6115 -2.0918,-0.9265 C 109.84356,145.5391 104.81904,143.05772 101,139 c 0,-0.66 0,-1.32 0,-2 z"
           fill="#2C2B2B"
           fill-opacity="1"
           id="path17"
           style="fill:#ffffff" />
      </g>
      <g
         id="g18"
         style="fill:#ffffff">
        <path
           d="m 421,136.99999 c 0,0.99 0,1.98 0,3 -12.8639,10.36929 -28.6993,14.22299 -44.9375,14.06249 -0.87463,-0.005 -1.74926,-0.009 -2.65039,-0.0137 -2.1374,-0.0116 -4.27477,-0.0296 -6.41211,-0.0488 0,-0.66 0,-1.32 0,-2 0.56807,-0.1253 1.13615,-0.2506 1.72144,-0.3796 13.13876,-2.9285 25.57466,-5.91832 37.46606,-12.43289 4.9658,-2.60928 9.3017,-2.71512 14.8125,-2.1875 z"
           fill="#282828"
           fill-opacity="1"
           id="path18"
           style="fill:#ffffff" />
      </g>
      <g
         id="g19"
         style="fill:#ffffff">
        <path
           d="m 246,352 c 3.81684,1.55501 6.19191,4.03595 9.00001,7 -0.99,1.485 -0.99,1.485 -2,3 -0.814,5.6452 -0.0615,9.2081 3,14 -0.2768,2.906 -1.0758,5.2275 -2,8 -3.44049,-0.566 -4.91076,-1.5836 -7.12501,-4.25 -0.49758,-0.5827 -0.99516,-1.1653 -1.50782,-1.7656 C 241.3161,372.1045 241.21466,365.9219 242,359 c 1.056,-2.74561 2.25357,-4.59866 4,-7 z"
           fill="#2C2C2C"
           fill-opacity="1"
           id="path19"
           style="fill:#ffffff" />
      </g>
      <g
         id="g20" />
      <g
         id="g21"
         style="fill:#ffffff">
        <path
           d="m 258,314 c 6,4 6,4 7,5 0.42386,3.37874 0.50591,6.6291 0,10 -2.375,2.1875 -2.375,2.1875 -5,3 -0.66,-0.33 -1.32,-0.66 -2,-1 0,-5.61 0,-11.22 0,-17 z"
           fill="#292A2A"
           fill-opacity="1"
           id="path21"
           style="fill:#ffffff" />
      </g>
    </g>
  </g>
  <g
     inkscape:groupmode="layer"
     id="layer2"
     inkscape:label="Layer 2" />
</svg>
